<svg id="Solutions" xmlns="http://www.w3.org/2000/svg" viewBox="0 0 206.81 135.38"><defs><style>.cls-1{fill:#fff;}.cls-2{fill:#00953a;}.cls-3{fill:none;stroke:#00953a;stroke-miterlimit:10;stroke-width:2.5px;}</style></defs><title>rgb_epiq_logo_lite</title><g id="Solutions-2" data-name="Solutions"><path id="path120-3-7-3-7-27" class="cls-1" d="M24.94,134.76a6.75,6.75,0,0,1-1,3.65,6.25,6.25,0,0,1-2.69,2.36,9.1,9.1,0,0,1-4,.82q-0.62,0-1.53-.09a15.64,15.64,0,0,1-2.4-.5,17.67,17.67,0,0,1-3.12-1.2v-5.52a21.32,21.32,0,0,0,3,1.75,7.26,7.26,0,0,0,3.15.7,2.55,2.55,0,0,0,2-.58,1.79,1.79,0,0,0,.46-1.08,1.9,1.9,0,0,0-.78-1.54,10.76,10.76,0,0,0-2.27-1.29,17.29,17.29,0,0,1-2.9-1.7,7.31,7.31,0,0,1-2-2.3A6.47,6.47,0,0,1,10.1,125a6.78,6.78,0,0,1,.8-3.29,5.79,5.79,0,0,1,2.43-2.35,8.36,8.36,0,0,1,4-.88,12.86,12.86,0,0,1,5.46,1.19,8.93,8.93,0,0,1,1.27.71v5.28a16.36,16.36,0,0,0-2.74-1.77,7,7,0,0,0-3.24-.78,2.32,2.32,0,0,0-1.64.49,1.6,1.6,0,0,0-.51,1.2,1.55,1.55,0,0,0,.51,1.15,8.81,8.81,0,0,0,1.81,1.19A35.43,35.43,0,0,1,22,129.33a7.74,7.74,0,0,1,2.18,2.25,5.94,5.94,0,0,1,.79,3.18h0Z" transform="translate(-10 -6.21)"/><path id="path122-9-3-5-5-5" class="cls-1" d="M52.76,130a13,13,0,0,1-1.29,5.79A10,10,0,0,1,47.6,140a11.8,11.8,0,0,1-6.24,1.56,11.58,11.58,0,0,1-6.3-1.62,10.07,10.07,0,0,1-3.83-4.27,13.49,13.49,0,0,1,0-11.34,10,10,0,0,1,3.83-4.25,11.68,11.68,0,0,1,6.31-1.62,12.58,12.58,0,0,1,5,.93,9.84,9.84,0,0,1,3.58,2.51A10.8,10.8,0,0,1,52,125.61a13.48,13.48,0,0,1,.72,4.43h0Zm-6.17,0a7.62,7.62,0,0,0-.33-2.31,5.1,5.1,0,0,0-1-1.82,4.65,4.65,0,0,0-1.64-1.2,5.52,5.52,0,0,0-2.25-.43,4.81,4.81,0,0,0-3.82,1.59,7,7,0,0,0,0,8.36,4.8,4.8,0,0,0,3.82,1.6,5.23,5.23,0,0,0,2.84-.74A4.71,4.71,0,0,0,46,133a7,7,0,0,0,.61-3h0Z" transform="translate(-10 -6.21)"/><path id="path124-1-4-4-6-1" class="cls-1" d="M74,141.3H58.75V118.8h6.05v17.12H74v5.39h0Z" transform="translate(-10 -6.21)"/><path id="path126-0-7-8-5-5" class="cls-1" d="M99,131.22a11.48,11.48,0,0,1-1,4.93,8.38,8.38,0,0,1-2.55,3.22A10.36,10.36,0,0,1,92,141.07a13.38,13.38,0,0,1-3.66.52,13.08,13.08,0,0,1-5-1,8.94,8.94,0,0,1-4-3.31,10.47,10.47,0,0,1-1.62-6.09V118.79h6v10.67a10.16,10.16,0,0,0,.57,3.68A4.37,4.37,0,0,0,86,135.27a4.21,4.21,0,0,0,6.37-2.1,10.07,10.07,0,0,0,.57-3.67v-10.7H99v12.42h0Z" transform="translate(-10 -6.21)"/><path id="path128-4-1-1-7-0" class="cls-1" d="M125.2,124.27h-7.36v17h-6v-17h-7.36V118.8H125.2v5.47h0Z" transform="translate(-10 -6.21)"/><path id="path130-1-3-0-6-7" class="cls-1" d="M137,141.3H131V118.8H137v22.5Z" transform="translate(-10 -6.21)"/><path id="path132-1-4-7-9-4" class="cls-1" d="M165.83,130a13,13,0,0,1-1.3,5.79,10,10,0,0,1-3.86,4.21,11.81,11.81,0,0,1-6.24,1.56,11.6,11.6,0,0,1-6.3-1.62,10.09,10.09,0,0,1-3.83-4.27,13.49,13.49,0,0,1,0-11.34,10,10,0,0,1,3.83-4.25,11.67,11.67,0,0,1,6.31-1.62,12.59,12.59,0,0,1,5,.93,9.81,9.81,0,0,1,3.58,2.51,10.77,10.77,0,0,1,2.13,3.69,13.53,13.53,0,0,1,.73,4.43h0Zm-6.17,0a7.57,7.57,0,0,0-.33-2.31,5.13,5.13,0,0,0-1-1.82,4.63,4.63,0,0,0-1.65-1.2,5.52,5.52,0,0,0-2.24-.43,4.81,4.81,0,0,0-3.83,1.59,7,7,0,0,0,0,8.36,4.81,4.81,0,0,0,3.82,1.6,5.21,5.21,0,0,0,2.84-.74,4.72,4.72,0,0,0,1.78-2,7,7,0,0,0,.61-3h0Z" transform="translate(-10 -6.21)"/><path id="path134-8-4-2-7-7" class="cls-1" d="M193.2,141.3h-5.39l-10.41-12.54V141.3h-6V118.8h5.38l10.39,12.47V118.8h6v22.5h0Z" transform="translate(-10 -6.21)"/><path id="path136-6-2-4-03-0" class="cls-1" d="M214.5,134.76a6.78,6.78,0,0,1-1,3.65,6.27,6.27,0,0,1-2.69,2.36,9.11,9.11,0,0,1-4,.82q-0.63,0-1.53-.09a15.63,15.63,0,0,1-2.4-.5,17.62,17.62,0,0,1-3.12-1.2v-5.52a21.35,21.35,0,0,0,3,1.75,7.26,7.26,0,0,0,3.15.7,2.55,2.55,0,0,0,2-.58,1.79,1.79,0,0,0,.46-1.08,1.9,1.9,0,0,0-.78-1.54,10.91,10.91,0,0,0-2.28-1.29,17.23,17.23,0,0,1-2.9-1.7,7.31,7.31,0,0,1-2-2.3,6.48,6.48,0,0,1-.79-3.26,6.79,6.79,0,0,1,.8-3.29,5.79,5.79,0,0,1,2.43-2.35,8.37,8.37,0,0,1,4-.88,12.88,12.88,0,0,1,5.46,1.19,8.9,8.9,0,0,1,1.27.71v5.28a16.26,16.26,0,0,0-2.74-1.77,7,7,0,0,0-3.24-.78,2.3,2.3,0,0,0-1.64.49,1.6,1.6,0,0,0-.51,1.2A1.54,1.54,0,0,0,206,126a8.69,8.69,0,0,0,1.81,1.19,35.53,35.53,0,0,1,3.71,2.19,7.76,7.76,0,0,1,2.18,2.25,6,6,0,0,1,.79,3.18h0Z" transform="translate(-10 -6.21)"/></g><path id="E-2" data-name="E" class="cls-1" d="M63.21,104.85H10v-57H61.25v8.5H18.43V71H48.19v8.5H18.43V96.35H63.22v8.5h0Z" transform="translate(-10 -6.21)"/><path id="P-2" data-name="P" class="cls-1" d="M110.47,47.88c5.19,0,9.31-.12,12.36,3.1s3,9,3,14.45c0,5.67,0,12-3.19,15s-7.76,2.75-13.79,2.75H78.6v21.72H70.18v-57h40.29Zm0.07,26.75c6.5,0,6.67-3.17,6.67-9,0-6.3-.35-9.21-7.23-9.21H78.6V74.63h31.94Z" transform="translate(-10 -6.21)"/><g id="I-3" data-name="I"><path id="path144-7-6-9-3-2" class="cls-2" d="M142.63,105.28h-7.52V52.65h7.52v52.62Z" transform="translate(-10 -6.21)"/><polygon id="polygon146-7-4-2-8-4" class="cls-2" points="118.49 36.75 139.24 36.75 128.86 55.26 118.49 36.75"/></g><g id="WAVE"><path class="cls-3" d="M164.24,43a15,15,0,0,0-15-15" transform="translate(-10 -6.21)"/><path class="cls-3" d="M174.49,43a25.25,25.25,0,0,0-25.25-25.25" transform="translate(-10 -6.21)"/><path class="cls-3" d="M184.74,43a35.5,35.5,0,0,0-35.5-35.5" transform="translate(-10 -6.21)"/></g><path id="Q-2" data-name="Q" class="cls-1" d="M216.82,101.7l-4.14-4.6a19.6,19.6,0,0,0,2.27-9.81V65.23c0-11.5-6.51-17.36-18.37-17.36H170.82c-11.86,0-18.37,5.85-18.37,17.36V87.29c0,11.5,6.51,17.36,18.37,17.36h25.75A24,24,0,0,0,206,103l4.88,5.43Zm-23.4-4.93H174c-10.26,0-13.94-2.38-13.94-13.89V69.64c0-11.5,2.13-13.89,12.39-13.89H195c10.26,0,12.39,2.38,12.39,13.89V82.88a25.87,25.87,0,0,1-.84,7.35l-4.8-5.34-5.94,6.7,4.15,4.62a30.22,30.22,0,0,1-6.51.56h0Z" transform="translate(-10 -6.21)"/></svg>